<svg width="16" height="17" viewBox="0 0 16 17" fill="none" xmlns="http://www.w3.org/2000/svg">
<path d="M6.00279 12.9707C6.00279 12.9707 6.0593 13.0273 6.17232 13.1404C6.28534 13.2535 6.34185 13.4648 6.34185 13.7743C6.34185 14.0838 6.22883 14.3517 6.00279 14.5779C5.77675 14.804 5.50908 14.9171 5.19976 14.9171C4.89045 14.9171 4.62277 14.804 4.39673 14.5779C4.17069 14.3517 4.05767 14.0838 4.05767 13.7743C4.05767 13.4648 4.17069 13.1969 4.39673 12.9707C4.62277 12.7445 4.89045 12.6314 5.19976 12.6314C5.50908 12.6314 5.77675 12.7445 6.00279 12.9707ZM13.9974 12.9707C13.9974 12.9707 14.0539 13.0273 14.1669 13.1404C14.28 13.2535 14.3365 13.4648 14.3365 13.7743C14.3365 14.0838 14.2234 14.3517 13.9974 14.5779C13.7714 14.804 13.5037 14.9171 13.1944 14.9171C12.8851 14.9171 12.6174 14.804 12.3913 14.5779C12.1653 14.3517 12.0523 14.0838 12.0523 13.7743C12.0523 13.4648 12.1653 13.1969 12.3913 12.9707C12.6174 12.7445 12.8851 12.6314 13.1944 12.6314C13.5037 12.6314 13.7714 12.7445 13.9974 12.9707ZM15.4786 4.06V8.63143C15.4786 8.77429 15.4295 8.90078 15.3313 9.01089C15.2332 9.12101 15.1127 9.185 14.97 9.20286L5.65481 10.2921C5.73214 10.6493 5.77081 10.8576 5.77081 10.9171C5.77081 11.0124 5.69942 11.2029 5.55666 11.4886H13.7654C13.9201 11.4886 14.0539 11.5451 14.1669 11.6582C14.28 11.7713 14.3365 11.9052 14.3365 12.06C14.3365 12.2148 14.28 12.3487 14.1669 12.4618C14.0539 12.5749 13.9201 12.6314 13.7654 12.6314H4.62872C4.47406 12.6314 4.34022 12.5749 4.2272 12.4618C4.11418 12.3487 4.05767 12.2148 4.05767 12.06C4.05767 11.9945 4.08147 11.9008 4.12905 11.7788C4.17664 11.6567 4.22423 11.5496 4.27181 11.4573C4.3194 11.3651 4.38335 11.246 4.46365 11.1002C4.54395 10.9543 4.59005 10.8665 4.60195 10.8368L3.02266 3.48857H1.20245C1.04779 3.48857 0.913957 3.43202 0.800937 3.31893C0.687918 3.20583 0.631409 3.07191 0.631409 2.91714C0.631409 2.76238 0.687918 2.62845 0.800937 2.51536C0.913957 2.40226 1.04779 2.34572 1.20245 2.34572H3.48663C3.5818 2.34572 3.66657 2.36506 3.74092 2.40375C3.81528 2.44244 3.87327 2.48857 3.91491 2.54214C3.95655 2.59572 3.99522 2.66863 4.03091 2.76089C4.0666 2.85316 4.09039 2.93054 4.10229 2.99304C4.11418 3.05554 4.13054 3.14333 4.15136 3.25643C4.17218 3.36952 4.18556 3.44691 4.19151 3.48857H14.9075C15.0622 3.48857 15.196 3.54512 15.309 3.65822C15.422 3.77131 15.4786 3.90524 15.4786 4.06Z" fill="white"/>
</svg>
