<svg width="16" height="17" viewBox="0 0 16 17" fill="none" xmlns="http://www.w3.org/2000/svg">
<path d="M9.88303 10.3145C9.88303 10.3145 10.0787 10.1188 10.4701 9.72741C10.8615 9.33604 11.0571 8.58976 11.0571 7.48857C11.0571 6.38738 10.6658 5.44541 9.88303 4.66268C9.10029 3.87994 8.15833 3.48857 7.05714 3.48857C5.95595 3.48857 5.01398 3.87994 4.23125 4.66268C3.44851 5.44541 3.05714 6.38738 3.05714 7.48857C3.05714 8.58976 3.44851 9.53172 4.23125 10.3145C5.01398 11.0972 5.95595 11.4886 7.05714 11.4886C8.15833 11.4886 9.10029 11.0972 9.88303 10.3145ZM15.6286 14.9171C15.6286 15.2267 15.5155 15.4945 15.2893 15.7207C15.0631 15.9469 14.7952 16.06 14.4857 16.06C14.1643 16.06 13.8964 15.9469 13.6821 15.7207L10.6196 12.6671C9.55416 13.4052 8.36666 13.7743 7.05714 13.7743C6.20595 13.7743 5.39196 13.6091 4.61517 13.2787C3.83839 12.9484 3.16874 12.502 2.60624 11.9395C2.04374 11.377 1.59732 10.7073 1.26696 9.93053C0.936602 9.15375 0.771423 8.33976 0.771423 7.48857C0.771423 6.63738 0.936602 5.82339 1.26696 5.0466C1.59732 4.26982 2.04374 3.60018 2.60624 3.03768C3.16874 2.47518 3.83839 2.02875 4.61517 1.69839C5.39196 1.36803 6.20595 1.20285 7.05714 1.20285C7.90833 1.20285 8.72232 1.36803 9.4991 1.69839C10.2759 2.02875 10.9455 2.47518 11.508 3.03768C12.0705 3.60018 12.517 4.26982 12.8473 5.0466C13.1777 5.82339 13.3429 6.63738 13.3429 7.48857C13.3429 8.79809 12.9738 9.98559 12.2357 11.0511L15.2982 14.1136C15.5184 14.3338 15.6286 14.6017 15.6286 14.9171Z" fill="white"/>
</svg>
